<?xml version="1.0" encoding="utf-8"?>
<!-- Generator: Adobe Illustrator 23.0.3, SVG Export Plug-In . SVG Version: 6.00 Build 0)  -->
<svg version="1.1" id="Squaremojis" xmlns="http://www.w3.org/2000/svg" xmlns:xlink="http://www.w3.org/1999/xlink" x="0px"
	 y="0px" viewBox="0 0 32 32" style="enable-background:new 0 0 32 32;" xml:space="preserve">
<style type="text/css">
	.st0{fill:#C352FF;}
	.st1{fill:#870CAF;}
	.st2{fill:#E2BAD9;}
	.st3{fill:#FFFEF8;}
	.st4{fill:#14001C;}
	.st5{fill:#F257FF;}
	.st6{fill:#1A0F33;}
	.st7{fill:#FF3B73;}
	.st8{fill:#190326;}
	.st9{fill:#88D82A;}
	.st10{fill:#4AB541;}
	.st11{fill:#D3ED8C;}
	.st12{fill:#47AF1C;}
	.st13{fill:#10AAFF;}
	.st14{fill:#4278C6;}
	.st15{fill:#ADE4EA;}
	.st16{fill:#FF409B;}
	.st17{fill:#2E004F;}
	.st18{fill:#FFFF0B;}
	.st19{fill:#FFA440;}
	.st20{fill:#C11467;}
	.st21{fill:#89064B;}
	.st22{fill:#3F002F;}
	.st23{fill:#FFFDB3;}
	.st24{fill:#DAE8ED;}
	.st25{fill:#00F3FF;}
	.st26{fill:#FFF317;}
	.st27{fill:#12E9FF;}
	.st28{fill:#C11162;}
	.st29{fill:#AEF416;}
	.st30{fill:#FFA9C6;}
	.st31{fill:#66CC25;}
	.st32{fill:#FFE810;}
	.st33{fill:#CE2EE5;}
	.st34{fill:#790096;}
	.st35{fill:#FFC440;}
	.st36{fill:#284936;}
	.st37{fill:#38664B;}
	.st38{fill:#90C67B;}
	.st39{fill:#FFB36E;}
</style>
<g id="squaremoji_x5F_gerk_x5F_sunglasses_x5F_smile_x5F_green">
	<path class="st9" d="M20.9,29h-9.5c-3.7,0-6.8-3.1-6.8-6.8v-9.5c0-3.7,3.1-6.8,6.8-6.8h9.5c3.7,0,6.8,3.1,6.8,6.8v9.5
		C27.7,26,24.6,29,20.9,29z"/>
	<g id="Skin_Texture_11_">
		<polygon class="st12" points="10.3,26 10.3,26.8 9.6,27.3 7.8,26.3 7.8,25.5 8.5,25 		"/>
		<polygon class="st12" points="11.5,26.3 10.1,25.5 10.1,24.8 10.7,24.4 12.1,25.3 12.1,25.9 		"/>
		<polygon class="st12" points="7.9,24.3 7.9,23.8 8.3,23.5 9.5,24.2 9.5,24.7 9,25 		"/>
	</g>
	<path class="st12" d="M24.6,14.9h-0.8c-0.2-0.9-0.9-1.6-1.9-1.6l-3.2,0h-5.3l-3.2,0c-0.9,0-1.7,0.7-1.9,1.6H7.6
		c-0.2,0-0.4,0.2-0.4,0.4v0.6c0,0.2,0.2,0.4,0.4,0.4h0.7v1.5c0,1.1,0.9,1.9,1.9,1.9h3.1c0.9,0,1.6-0.6,1.8-1.4l0.5-1.6
		c0.1-0.2,0.2-0.3,0.4-0.3c0.2,0,0.4,0.1,0.4,0.3l0.5,1.6c0.2,0.8,1,1.4,1.8,1.4H22c1.1,0,1.9-0.9,1.9-1.9v-1.5h0.7
		c0.2,0,0.4-0.2,0.4-0.4v-0.6C25,15.1,24.8,14.9,24.6,14.9z"/>
	<g id="Glasses_3_">
		<path class="st17" d="M25.8,13h-0.9c-0.2-1-1.1-1.8-2.1-1.8l-3.7,0c-0.8,0-1.6,0.3-2.1,1c-0.1,0.1-0.2,0.3-0.3,0.5
			c-0.1,0.2-0.3,0.4-0.6,0.4h0c-0.3,0-0.5-0.1-0.6-0.4c-0.1-0.2-0.2-0.3-0.3-0.5c-0.5-0.6-1.3-1-2.1-1l-3.7,0c-1.1,0-2,0.8-2.1,1.8
			H6.4C6.2,13,6,13.2,6,13.4v0.7c0,0.2,0.2,0.4,0.4,0.4h0.8v1.7c0,1.2,1,2.2,2.2,2.2H13c1,0,1.8-0.7,2.1-1.6l0.5-1.9
			c0.1-0.2,0.3-0.4,0.5-0.4h0c0.2,0,0.4,0.2,0.5,0.4l0.5,1.9c0.3,0.9,1.1,1.6,2.1,1.6h3.6c1.2,0,2.2-1,2.2-2.2v-1.7h0.8
			c0.2,0,0.4-0.2,0.4-0.4v-0.7C26.2,13.2,26,13,25.8,13z"/>
		<g>
			<path class="st24" d="M12.2,15.4c-0.1,0-0.3-0.1-0.4-0.2c-0.1-0.1-0.2-0.2-0.3-0.2c-0.1,0-0.3,0.1-0.3,0.2
				c-0.1,0.2-0.4,0.2-0.6,0.1c-0.2-0.1-0.2-0.4-0.1-0.6c0.2-0.3,0.6-0.5,1-0.5c0.4,0,0.8,0.2,1,0.5c0.1,0.2,0.1,0.5-0.1,0.6
				C12.4,15.4,12.3,15.4,12.2,15.4z"/>
		</g>
		<g>
			<path class="st24" d="M21.3,15.4c-0.1,0-0.3-0.1-0.4-0.2c-0.1-0.1-0.2-0.2-0.3-0.2s-0.3,0.1-0.3,0.2c-0.1,0.2-0.4,0.2-0.6,0.1
				c-0.2-0.1-0.2-0.4-0.1-0.6c0.2-0.3,0.6-0.5,1-0.5c0.4,0,0.8,0.2,1,0.5c0.1,0.2,0.1,0.5-0.1,0.6C21.5,15.4,21.4,15.4,21.3,15.4z"
				/>
		</g>
	</g>
	<path class="st12" d="M24.8,20.9c0-1.9-1.6-3.3-3.5-3.3c-1.3,0-2.5,0.8-3,1.9c-1.1-0.6-2.5-0.6-3.6,0.1c-1.6,1-2,3.1-1,4.7
		c1.3,2,3.7,3,6,2.6c0.3,0,0.5-0.1,0.8-0.2C23.1,25.9,24.8,23.5,24.8,20.9z"/>
	<g id="Mouth_11_">
		<g>
			<path class="st7" d="M18.6,25.5c-2.3,0.4-4.7-0.6-6-2.6c-1-1.6-0.6-3.7,1-4.7c1.1-0.7,2.5-0.7,3.6-0.1c0.5-1.1,1.7-1.9,3-1.9
				c1.9,0,3.4,1.4,3.5,3.3c0.1,2.7-1.7,5.1-4.2,5.8C19.2,25.4,18.9,25.5,18.6,25.5z"/>
		</g>
		<g>
			<path class="st8" d="M18.2,22.9c-1.3,0.2-2.6-0.3-3.3-1.5c-0.2-0.3-0.1-0.8,0.2-1c0.3-0.2,0.8-0.1,1,0.2c0.5,0.7,1.3,1,2.1,0.8
				c0.8-0.2,1.3-1,1.3-1.8c0-0.4,0.3-0.7,0.7-0.7c0.4,0,0.7,0.3,0.7,0.7c0,1.5-0.9,2.8-2.3,3.2C18.5,22.8,18.3,22.9,18.2,22.9z"/>
		</g>
	</g>
	<path class="st17" d="M28.5,9.8c-0.1-2.9-1.6-5.1-3.4-5.1S21.7,7,21.6,9.8H28.5z"/>
	<path class="st17" d="M22.1,5.7c0.3-0.4,0-1-0.5-1c0,0,0,0,0,0l-16.3,0c-1,0-1.9,0.8-1.8,1.8c0,1,0.8,1.8,1.8,1.8h15.7
		C21.2,7.3,21.6,6.4,22.1,5.7z"/>
</g>
</svg>
