<?xml version="1.0" encoding="utf-8"?>
<!-- Generator: Adobe Illustrator 23.0.3, SVG Export Plug-In . SVG Version: 6.00 Build 0)  -->
<svg version="1.1" id="Squaremojis" xmlns="http://www.w3.org/2000/svg" xmlns:xlink="http://www.w3.org/1999/xlink" x="0px"
	 y="0px" viewBox="0 0 32 32" style="enable-background:new 0 0 32 32;" xml:space="preserve">
<style type="text/css">
	.st0{fill:#C352FF;}
	.st1{fill:#870CAF;}
	.st2{fill:#E2BAD9;}
	.st3{fill:#FFFEF8;}
	.st4{fill:#14001C;}
	.st5{fill:#F257FF;}
	.st6{fill:#1A0F33;}
	.st7{fill:#FF3B73;}
	.st8{fill:#190326;}
	.st9{fill:#88D82A;}
	.st10{fill:#4AB541;}
	.st11{fill:#D3ED8C;}
	.st12{fill:#47AF1C;}
	.st13{fill:#10AAFF;}
	.st14{fill:#4278C6;}
	.st15{fill:#ADE4EA;}
	.st16{fill:#FF409B;}
	.st17{fill:#2E004F;}
	.st18{fill:#FFFF0B;}
	.st19{fill:#FFA440;}
	.st20{fill:#C11467;}
	.st21{fill:#89064B;}
	.st22{fill:#3F002F;}
	.st23{fill:#FFFDB3;}
	.st24{fill:#DAE8ED;}
	.st25{fill:#00F3FF;}
	.st26{fill:#FFF317;}
	.st27{fill:#12E9FF;}
	.st28{fill:#C11162;}
	.st29{fill:#AEF416;}
	.st30{fill:#FFA9C6;}
	.st31{fill:#66CC25;}
	.st32{fill:#FFE810;}
	.st33{fill:#CE2EE5;}
	.st34{fill:#790096;}
	.st35{fill:#FFC440;}
	.st36{fill:#284936;}
	.st37{fill:#38664B;}
	.st38{fill:#90C67B;}
	.st39{fill:#FFB36E;}
</style>
<g id="squaremoji_x5F_brain_x5F_yellow">
	<path class="st32" d="M20.8,29.1h-9.5c-3.7,0-6.8-3.1-6.8-6.8v-9.5c0-3.7,3.1-6.8,6.8-6.8h9.5c3.7,0,6.8,3.1,6.8,6.8v9.5
		C27.6,26,24.5,29.1,20.8,29.1z"/>
	<path class="st19" d="M24.7,23.4l-1.1-1.1c-1.4-1.4-3.6-1.7-5.3-0.7c-1.4-0.8-3.1-0.8-4.5,0c-1.7-1-3.9-0.8-5.3,0.7l-1.1,1.1
		c-1.1,1.1-1.1,2.9,0,4c1.1,1.1,2.9,1.1,4,0l0.4-0.4c1.4,0.7,3,0.7,4.3-0.1c1.3,0.8,3,0.8,4.3,0.1l0.4,0.4c0.5,0.5,1.3,0.8,2,0.8
		s1.4-0.3,2-0.8C25.8,26.3,25.8,24.5,24.7,23.4z"/>
	<g>
		<g>
			<circle class="st19" cx="14.2" cy="17.4" r="1.8"/>
			<g id="Eye_44_">
				<circle class="st23" cx="14.2" cy="16.9" r="1.8"/>
				<circle class="st3" cx="14.2" cy="16.6" r="1.4"/>
			</g>
		</g>
		<path class="st4" d="M14.5,16.8h-0.3l0.2-0.2c0,0,0-0.1,0-0.1c0,0-0.1,0-0.1,0l-0.2,0.2v-0.3c0-0.1,0-0.1-0.1-0.1
			c-0.1,0-0.1,0-0.1,0.1v0.3l-0.2-0.2c0,0-0.1,0-0.1,0c0,0,0,0.1,0,0.1l0.2,0.2h-0.3c-0.1,0-0.1,0-0.1,0.1c0,0.1,0,0.1,0.1,0.1h0.3
			l-0.2,0.2c0,0,0,0.1,0,0.1c0,0,0,0,0.1,0s0.1,0,0.1,0l0.2-0.2v0.3c0,0.1,0,0.1,0.1,0.1c0.1,0,0.1,0,0.1-0.1v-0.3l0.2,0.2
			c0,0,0,0,0.1,0c0,0,0.1,0,0.1,0c0,0,0-0.1,0-0.1L14.2,17h0.3c0.1,0,0.1,0,0.1-0.1C14.6,16.9,14.5,16.8,14.5,16.8z"/>
	</g>
	<g>
		<g>
			<circle class="st19" cx="17.7" cy="17.4" r="1.8"/>
			<g id="Eye_29_">
				<circle class="st23" cx="17.8" cy="16.9" r="1.8"/>
				<circle class="st3" cx="17.8" cy="16.6" r="1.4"/>
			</g>
		</g>
		<path class="st4" d="M18,16.8h-0.3l0.2-0.2c0,0,0-0.1,0-0.1c0,0-0.1,0-0.1,0l-0.2,0.2v-0.3c0-0.1,0-0.1-0.1-0.1
			c-0.1,0-0.1,0-0.1,0.1v0.3l-0.2-0.2c0,0-0.1,0-0.1,0c0,0,0,0.1,0,0.1l0.2,0.2H17c-0.1,0-0.1,0-0.1,0.1c0,0.1,0,0.1,0.1,0.1h0.3
			l-0.2,0.2c0,0,0,0.1,0,0.1c0,0,0,0,0.1,0c0,0,0.1,0,0.1,0l0.2-0.2v0.3c0,0.1,0,0.1,0.1,0.1c0.1,0,0.1,0,0.1-0.1v-0.3l0.2,0.2
			c0,0,0,0,0.1,0s0.1,0,0.1,0c0,0,0-0.1,0-0.1L17.8,17H18c0.1,0,0.1,0,0.1-0.1C18.1,16.9,18.1,16.8,18,16.8z"/>
	</g>
	<g id="Skin_Texture_21_">
		<path class="st19" d="M6.8,17.4c-0.2,0-0.3-0.1-0.3-0.3s0.1-0.3,0.3-0.3s0.3,0.1,0.3,0.3S7,17.4,6.8,17.4z"/>
		<path class="st19" d="M9.2,19.2c0.2,0,0.4,0.2,0.4,0.4c0,0.2-0.2,0.4-0.4,0.4c-0.2,0-0.4-0.2-0.4-0.4C8.9,19.4,9,19.2,9.2,19.2z"
			/>
		<circle class="st19" cx="8.9" cy="17.6" r="0.8"/>
		<path class="st19" d="M7.2,18.8c0.3,0,0.6,0.3,0.6,0.6c0,0.3-0.3,0.6-0.6,0.6s-0.6-0.3-0.6-0.6C6.5,19.1,6.8,18.8,7.2,18.8z"/>
	</g>
	<g id="Skin_Texture_20_">
		<ellipse transform="matrix(0.7719 -0.6357 0.6357 0.7719 -4.6367 10.9427)" class="st19" cx="12.9" cy="11.9" rx="4.5" ry="1.8"/>
	</g>
	<g id="Skin_Texture_18_">
		<path class="st19" d="M24,19.7c0,0.1-0.1,0.2-0.2,0.2s-0.2-0.1-0.2-0.2s0.1-0.2,0.2-0.2S24,19.6,24,19.7z"/>
		<path class="st19" d="M25.2,18.1c0-0.1,0.1-0.2,0.2-0.2c0.1,0,0.2,0.1,0.2,0.2c0,0.1-0.1,0.2-0.2,0.2
			C25.3,18.3,25.2,18.2,25.2,18.1z"/>
		<circle class="st19" cx="24.1" cy="18.3" r="0.6"/>
		<path class="st19" d="M24.9,19.5c0-0.2,0.2-0.4,0.4-0.4c0.2,0,0.4,0.2,0.4,0.4s-0.2,0.4-0.4,0.4C25.1,19.9,24.9,19.7,24.9,19.5z"
			/>
	</g>
	<g>
		<g>
			<path class="st7" d="M22.7,27.1c-0.7,0-1.4-0.3-2-0.8l-0.4-0.4c-1.4,0.7-3,0.7-4.3-0.1c-1.3,0.8-3,0.8-4.3,0.1l-0.4,0.4
				c-1.1,1.1-2.9,1.1-4,0c-1.1-1.1-1.1-2.9,0-4l1.1-1.1c1.4-1.4,3.6-1.7,5.3-0.7c1.4-0.8,3.1-0.8,4.5,0c1.7-1,3.9-0.8,5.3,0.7
				l1.1,1.1c1.1,1.1,1.1,2.9,0,4C24.1,26.8,23.4,27.1,22.7,27.1z"/>
		</g>
		<g>
			<path class="st3" d="M11,23.3L11,23.3c0.5-0.2,0.7-0.8,0.5-1.3l-0.3-0.6c-0.2-0.5-0.8-0.7-1.3-0.5l0,0c-0.5,0.2-0.7,0.8-0.5,1.3
				l0.3,0.6C9.9,23.3,10.5,23.5,11,23.3z"/>
		</g>
		<g>
			<path class="st3" d="M21.1,23.4L21.1,23.4c0.5,0.2,1.1-0.1,1.3-0.6l0.2-0.6c0.2-0.5-0.1-1.1-0.6-1.3h0c-0.5-0.2-1.1,0.1-1.3,0.6
				l-0.2,0.6C20.3,22.6,20.6,23.2,21.1,23.4z"/>
		</g>
		<path class="st8" d="M22.7,24.8c-0.1,0-0.3-0.1-0.4-0.2l-1.1-1.1c-0.4-0.4-1-0.4-1.4,0c-0.8,0.8-2.2,0.8-3,0c-0.4-0.4-1-0.4-1.4,0
			c-0.8,0.8-2.2,0.8-3,0c-0.4-0.4-1-0.4-1.4,0l-1.1,1.1c-0.2,0.2-0.6,0.2-0.8,0s-0.2-0.6,0-0.8l1.1-1.1c0.8-0.8,2.2-0.8,3,0
			c0.4,0.4,1.1,0.4,1.4,0c0.8-0.8,2.2-0.8,3,0c0.4,0.4,1.1,0.4,1.4,0c0.8-0.8,2.2-0.8,3,0l1.1,1.1c0.2,0.2,0.2,0.6,0,0.8
			C23,24.8,22.9,24.8,22.7,24.8z"/>
	</g>
	<g id="item13_2_">
		<path class="st33" d="M13.4,2c-1.2-0.4-2.5,0.1-3.2,1.1c0,0,0,0-0.1,0C8.8,2.6,7.3,3.4,6.8,4.8c-0.3,0.9-0.1,2,0.5,2.7
			c-0.8,0.3-1.4,1-1.5,2c-0.2,1,0.3,2.1,1.1,2.7c0.5,0.4,1.1,0.5,1.6,0.5c0,0,0,0,0,0c0.1,0.3,0.3,0.6,0.5,0.8
			c0.4,0.5,1.1,0.6,1.7,0.3c0.7-0.3,1.4-0.6,2.1-1c1.1-0.5,2.1-1,3-1.5c0.6-0.3,1-1,0.8-1.7l0,0c0.4-0.3,0.7-0.6,0.9-1.1
			c0-0.1,0.1-0.1,0.1-0.2c0.5-1.4-0.2-2.9-1.6-3.4c-0.2-0.1-0.5-0.1-0.8-0.1C15.3,3.5,14.6,2.4,13.4,2z"/>
		<path class="st34" d="M13.5,5.6c-0.8-0.3-1.7,0.1-2.2,0.8c0,0,0,0,0,0c-0.9-0.3-2,0.2-2.3,1.1C8.7,8.1,8.9,8.8,9.3,9.3
			c-0.5,0.2-0.9,0.7-1,1.3c-0.1,0.7,0.2,1.4,0.8,1.8c0.4,0.2,0.7,0.3,1.1,0.3c0,0,0,0,0,0c0.1,0.2,0.2,0.4,0.4,0.6
			c0.3,0.3,0.8,0.4,1.2,0.2c0.5-0.2,1-0.4,1.5-0.7c0.7-0.3,1.4-0.7,2-1c0.4-0.2,0.6-0.7,0.5-1.2l0,0c0.2-0.2,0.4-0.4,0.6-0.7
			c0-0.1,0-0.1,0.1-0.2c0.3-0.9-0.2-2-1.1-2.3c-0.2-0.1-0.3-0.1-0.5-0.1C14.7,6.6,14.2,5.9,13.5,5.6z"/>
		<circle class="st33" cx="9.1" cy="7.1" r="0.9"/>
		<circle class="st33" cx="12.1" cy="7.2" r="0.5"/>
		<circle class="st33" cx="12.2" cy="5.4" r="0.5"/>
		<circle class="st34" cx="15.9" cy="6.6" r="0.4"/>
		<g>
			<path class="st35" d="M9.6,4.4C9.6,4.6,9.3,4.7,9.2,4.6C8.8,4.5,8.4,4.7,8.2,5.1C8.2,5.3,8,5.4,7.8,5.3C7.6,5.2,7.5,5,7.5,4.8
				c0.3-0.8,1.1-1.2,1.9-0.9C9.6,4,9.7,4.2,9.6,4.4z"/>
		</g>
		<circle class="st35" cx="11.4" cy="3.1" r="0.4"/>
	</g>
</g>
</svg>
