<?xml version="1.0" encoding="utf-8"?>
<!-- Generator: Adobe Illustrator 23.0.3, SVG Export Plug-In . SVG Version: 6.00 Build 0)  -->
<svg version="1.1" id="Squaremojis" xmlns="http://www.w3.org/2000/svg" xmlns:xlink="http://www.w3.org/1999/xlink" x="0px"
	 y="0px" viewBox="0 0 32 32" style="enable-background:new 0 0 32 32;" xml:space="preserve">
<style type="text/css">
	.st0{fill:#C352FF;}
	.st1{fill:#870CAF;}
	.st2{fill:#E2BAD9;}
	.st3{fill:#FFFEF8;}
	.st4{fill:#14001C;}
	.st5{fill:#F257FF;}
	.st6{fill:#1A0F33;}
	.st7{fill:#FF3B73;}
	.st8{fill:#190326;}
	.st9{fill:#88D82A;}
	.st10{fill:#4AB541;}
	.st11{fill:#D3ED8C;}
	.st12{fill:#47AF1C;}
	.st13{fill:#10AAFF;}
	.st14{fill:#4278C6;}
	.st15{fill:#ADE4EA;}
	.st16{fill:#FF409B;}
	.st17{fill:#2E004F;}
	.st18{fill:#FFFF0B;}
	.st19{fill:#FFA440;}
	.st20{fill:#C11467;}
	.st21{fill:#89064B;}
	.st22{fill:#3F002F;}
	.st23{fill:#FFFDB3;}
	.st24{fill:#DAE8ED;}
	.st25{fill:#00F3FF;}
	.st26{fill:#FFF317;}
	.st27{fill:#12E9FF;}
	.st28{fill:#C11162;}
	.st29{fill:#AEF416;}
	.st30{fill:#FFA9C6;}
	.st31{fill:#66CC25;}
	.st32{fill:#FFE810;}
	.st33{fill:#CE2EE5;}
	.st34{fill:#790096;}
	.st35{fill:#FFC440;}
	.st36{fill:#284936;}
	.st37{fill:#38664B;}
	.st38{fill:#90C67B;}
	.st39{fill:#FFB36E;}
</style>
<g id="squaremoji_x5F_smile_x5F_yellow">
	<path class="st18" d="M20.8,29.1h-9.5c-3.7,0-6.8-3.1-6.8-6.8v-9.5C4.4,9.1,7.5,6,11.2,6h9.5c3.7,0,6.8,3.1,6.8,6.8v9.5
		C27.6,26.1,24.5,29.1,20.8,29.1z"/>
	<path class="st19" d="M22,5.7L22,5.7c-1.1-1-2.6-1.5-4.2-1.5h-3.2C11,4.1,8,7.1,8,10.7v0c0,1.7,0.6,3.2,1.7,4.4
		c-1.6-0.9-2.7-2.6-2.9-4.5c0,0.2,0,0.5,0,0.7c0,3.3,2.7,6,6,6h2.9c0,0,0,0,0,0h2.2c1.6,0,3.1-0.6,4.2-1.5h0c1.4-1.2,2.4-3,2.4-5
		C24.4,8.7,23.4,6.9,22,5.7z"/>
	<g>
		<path class="st19" d="M25.2,15.7c-1.2,4.1-5,7-9.2,7c-4.3,0-8.1-2.9-9.2-7C6.5,14.6,5.5,14,4.4,14v7.3c1.5,2.1,3.5,3.7,5.8,4.8
			l-0.4,1.4c-0.1,0.4,0.1,0.7,0.4,0.8l1.7,0.5c0.4,0.1,0.7-0.1,0.8-0.4l0.4-1.4c0.9,0.2,1.8,0.3,2.8,0.3c4.6,0,8.9-2.3,11.6-5.9V14
			C26.5,14,25.5,14.7,25.2,15.7z"/>
	</g>
	<g id="Mouth_10_">
		<g>
			<path class="st7" d="M16,25.2c-6.3,0-11.9-4.2-13.7-10.3C2,13.6,2.7,12.3,3.9,12c1.2-0.4,2.5,0.4,2.9,1.6c1.2,4.1,5,7,9.2,7
				c4.3,0,8.1-2.9,9.2-7c0.4-1.2,1.6-1.9,2.9-1.6c1.2,0.4,1.9,1.6,1.6,2.9C27.9,20.9,22.3,25.2,16,25.2z"/>
		</g>
		<g>
			<path class="st8" d="M16,23.4c-5.5,0-10.4-3.7-12-9c-0.1-0.3,0.1-0.6,0.4-0.7c0.3-0.1,0.6,0.1,0.7,0.4c1.4,4.9,5.9,8.3,10.9,8.3
				c5.1,0,9.6-3.4,10.9-8.3c0.1-0.3,0.4-0.4,0.7-0.4c0.3,0.1,0.4,0.4,0.4,0.7C26.4,19.7,21.5,23.4,16,23.4z"/>
		</g>
		<g>
			<path class="st3" d="M11.1,26.4L11.1,26.4c-0.8-0.3-1.3-1.1-1-1.9l0.7-2.1c0.1-0.5,0.6-0.7,1.1-0.6l1.3,0.4
				c0.5,0.1,0.7,0.6,0.6,1.1l-0.7,2.1C12.8,26.2,11.9,26.7,11.1,26.4z"/>
		</g>
	</g>
	<circle class="st19" cx="16" cy="16.9" r="3.2"/>
	<g id="Hair_5_">
		<path class="st7" d="M17.8,15.9h-3.2C11,15.9,8,13,8,9.3v0c0-3.6,3-6.6,6.6-6.6h3.2c3.6,0,6.5,3,6.5,6.6v0
			C24.3,13,21.4,15.9,17.8,15.9z"/>
		<path class="st7" d="M15.6,14.5h-2.9c-3.1,0-5.6-2.3-6-5.3c0,0.2,0,0.5,0,0.7l0,0c0,3.3,2.7,6,6,6h2.9c3.3,0,5.9-2.7,5.9-6l0,0
			c0-0.2,0-0.5,0-0.7C21.1,12.2,18.7,14.5,15.6,14.5z"/>
		<g>
			<path class="st20" d="M24.4,9.3L24.4,9.3c0-2-1-3.8-2.4-5h-0.8c-1.9,0-3.4,2.3-3.4,5s1.5,5,3.4,5H22
				C23.4,13.2,24.4,11.4,24.4,9.3z"/>
		</g>
		<ellipse class="st21" cx="21.8" cy="9.3" rx="2.1" ry="3.4"/>
		<g>
			<path class="st22" d="M21.8,9.3c0-1.3-0.4-2.3-1-2.9c-0.6,0.6-1,1.7-1,2.9s0.4,2.3,1,2.9C21.4,11.7,21.8,10.6,21.8,9.3z"/>
		</g>
	</g>
	<g id="Eye_3_">
		<circle class="st23" cx="16" cy="16" r="3.2"/>
		<circle class="st3" cx="16" cy="15.5" r="2.5"/>
		<path class="st4" d="M16.3,15.8L16.3,15.8c-0.1,0.1-0.3,0-0.3-0.1c0,0,0,0,0,0c0,0,0-0.1,0-0.1c0-0.1,0-0.1-0.1-0.1
			c0,0-0.1,0-0.1,0c-0.2,0.1-0.3,0.2-0.4,0.4c0,0.3,0.3,0.6,0.6,0.6c0.2,0,0.4-0.2,0.4-0.4c0-0.1,0-0.2,0-0.3
			C16.5,15.8,16.4,15.7,16.3,15.8z"/>
	</g>
</g>
</svg>
