<?xml version="1.0" encoding="utf-8"?>
<!-- Generator: Adobe Illustrator 23.0.3, SVG Export Plug-In . SVG Version: 6.00 Build 0)  -->
<svg version="1.1" id="Squaremojis" xmlns="http://www.w3.org/2000/svg" xmlns:xlink="http://www.w3.org/1999/xlink" x="0px"
	 y="0px" viewBox="0 0 32 32" style="enable-background:new 0 0 32 32;" xml:space="preserve">
<style type="text/css">
	.st0{fill:#C352FF;}
	.st1{fill:#870CAF;}
	.st2{fill:#E2BAD9;}
	.st3{fill:#FFFEF8;}
	.st4{fill:#14001C;}
	.st5{fill:#F257FF;}
	.st6{fill:#1A0F33;}
	.st7{fill:#FF3B73;}
	.st8{fill:#190326;}
	.st9{fill:#88D82A;}
	.st10{fill:#4AB541;}
	.st11{fill:#D3ED8C;}
	.st12{fill:#47AF1C;}
	.st13{fill:#10AAFF;}
	.st14{fill:#4278C6;}
	.st15{fill:#ADE4EA;}
	.st16{fill:#FF409B;}
	.st17{fill:#2E004F;}
	.st18{fill:#FFFF0B;}
	.st19{fill:#FFA440;}
	.st20{fill:#C11467;}
	.st21{fill:#89064B;}
	.st22{fill:#3F002F;}
	.st23{fill:#FFFDB3;}
	.st24{fill:#DAE8ED;}
	.st25{fill:#00F3FF;}
	.st26{fill:#FFF317;}
	.st27{fill:#12E9FF;}
	.st28{fill:#C11162;}
	.st29{fill:#AEF416;}
	.st30{fill:#FFA9C6;}
	.st31{fill:#66CC25;}
	.st32{fill:#FFE810;}
	.st33{fill:#CE2EE5;}
	.st34{fill:#790096;}
	.st35{fill:#FFC440;}
	.st36{fill:#284936;}
	.st37{fill:#38664B;}
	.st38{fill:#90C67B;}
	.st39{fill:#FFB36E;}
</style>
<g id="squaremoji_x5F_devil_x5F_surprised_x5F_red">
	<path class="st7" d="M20.8,29.1h-9.5c-3.7,0-6.8-3.1-6.8-6.8v-9.5C4.4,9,7.5,6,11.2,6h9.5c3.7,0,6.8,3.1,6.8,6.8v9.5
		C27.6,26.1,24.5,29.1,20.8,29.1z"/>
	<path class="st28" d="M16,18.1c-2.4,0-4.5,2-4.5,4.5V27c0,0.4,0.3,0.7,0.7,0.7h7.4c0.4,0,0.7-0.3,0.7-0.7v-4.5
		C20.4,20.1,18.4,18.1,16,18.1z"/>
	<g id="Mouth8_2_">
		<path class="st25" d="M19.7,25.6h-7.4c-0.4,0-0.7-0.3-0.7-0.7v-4.5c0-2.4,2-4.5,4.5-4.5l0,0c2.4,0,4.5,2,4.5,4.5v4.5
			C20.4,25.3,20.1,25.6,19.7,25.6z"/>
		<path class="st4" d="M17.6,23.4h-3.3c-0.4,0-0.7-0.3-0.7-0.7v-2.1c0-1.3,1.1-2.4,2.4-2.4s2.4,1.1,2.4,2.4v2.1
			C18.4,23,18,23.4,17.6,23.4z"/>
		<path class="st3" d="M17.7,23.4h-1.8v-1.3c0-0.5,0.3-0.9,0.8-0.9c0.5-0.1,1,0.4,1,0.9V23.4z"/>
	</g>
	<g>
		<circle class="st28" cx="7.9" cy="21.4" r="2.2"/>
		<g id="Eye_28_">
			<circle class="st30" cx="7.9" cy="20.8" r="2.2"/>
			<circle class="st3" cx="7.9" cy="20.4" r="1.7"/>
		</g>
	</g>
	<path class="st4" d="M8.3,20.7H7.9l0.2-0.2c0,0,0-0.1,0-0.2c0,0-0.1,0-0.2,0l-0.2,0.2v-0.3c0-0.1-0.1-0.1-0.1-0.1
		c-0.1,0-0.1,0.1-0.1,0.1v0.3l-0.2-0.2c0,0-0.1,0-0.2,0c0,0,0,0.1,0,0.2l0.2,0.2H7c-0.1,0-0.1,0.1-0.1,0.1c0,0.1,0.1,0.1,0.1,0.1
		h0.3l-0.2,0.2c0,0,0,0.1,0,0.2c0,0,0.1,0,0.1,0s0.1,0,0.1,0l0.2-0.2v0.3c0,0.1,0.1,0.1,0.1,0.1c0.1,0,0.1-0.1,0.1-0.1v-0.3L8,21.4
		c0,0,0.1,0,0.1,0s0.1,0,0.1,0c0,0,0-0.1,0-0.2l-0.2-0.2h0.3c0.1,0,0.1-0.1,0.1-0.1C8.4,20.7,8.3,20.7,8.3,20.7z"/>
	<g>
		<circle class="st28" cx="24" cy="21.4" r="2.2"/>
		<g id="Eye_23_">
			<circle class="st30" cx="24.1" cy="20.8" r="2.2"/>
			<circle class="st3" cx="24.1" cy="20.4" r="1.7"/>
		</g>
	</g>
	<path class="st4" d="M25.2,20.7h-0.3l0.2-0.2c0,0,0-0.1,0-0.2c0,0-0.1,0-0.2,0l-0.2,0.2v-0.3c0-0.1-0.1-0.1-0.1-0.1
		s-0.1,0.1-0.1,0.1v0.3l-0.2-0.2c0,0-0.1,0-0.2,0c0,0,0,0.1,0,0.2l0.2,0.2h-0.3c-0.1,0-0.1,0.1-0.1,0.1c0,0.1,0.1,0.1,0.1,0.1h0.3
		L24,21.2c0,0,0,0.1,0,0.2c0,0,0.1,0,0.1,0c0,0,0.1,0,0.1,0l0.2-0.2v0.3c0,0.1,0.1,0.1,0.1,0.1s0.1-0.1,0.1-0.1v-0.3l0.2,0.2
		c0,0,0.1,0,0.1,0c0,0,0.1,0,0.1,0c0,0,0-0.1,0-0.2l-0.2-0.2h0.3c0.1,0,0.1-0.1,0.1-0.1C25.3,20.7,25.2,20.7,25.2,20.7z"/>
	<g id="Skin_Texture_13_">
		<path class="st28" d="M7.6,12.8c-0.2,0-0.4-0.2-0.4-0.4c0-0.2,0.2-0.4,0.4-0.4C7.8,12,8,12.2,8,12.4C8,12.7,7.8,12.8,7.6,12.8z"/>
		<path class="st28" d="M10.8,15.3c0.3,0,0.5,0.2,0.5,0.5c0,0.3-0.2,0.5-0.5,0.5c-0.3,0-0.5-0.2-0.5-0.5
			C10.4,15.5,10.6,15.3,10.8,15.3z"/>
		<circle class="st28" cx="10.4" cy="13.1" r="1.1"/>
		<path class="st28" d="M8,14.7c0.5,0,0.9,0.4,0.9,0.9c0,0.5-0.4,0.9-0.9,0.9c-0.5,0-0.9-0.4-0.9-0.9C7.2,15.1,7.6,14.7,8,14.7z"/>
	</g>
	<ellipse transform="matrix(0.9537 -0.3007 0.3007 0.9537 -2.3463 7.12)" class="st28" cx="22" cy="11.2" rx="1.6" ry="2.3"/>
	<ellipse transform="matrix(0.3007 -0.9537 0.9537 0.3007 -3.2566 17.9221)" class="st28" cx="10.6" cy="11.2" rx="2.3" ry="1.6"/>
	<g id="Horn1_4_">
		<g>
			<path class="st29" d="M7.8,4c0,0.2-0.3,2.2,1.1,3.7c0.7,0.7,1.5,1,2.1,1.2c0.7,0.2,1.2,0.8,1.2,1.5c0,0.1,0,0.3,0,0.4
				c0,0.1,0,0.1-0.1,0.2c-0.2,0.7-1,1.1-1.7,1C8.6,11.7,7,10.4,6.5,8.6C6,7,6.6,5.2,7.8,4z"/>
		</g>
		<g>
			<polygon class="st31" points="8,9.5 7.7,9.6 7.7,9.9 8.6,10.5 8.9,10.4 8.9,10.1 			"/>
			<polygon class="st31" points="9.3,10.1 9.5,10.1 9.5,9.9 8.9,9.5 8.8,9.6 8.8,9.8 			"/>
			<polygon class="st31" points="10.1,10.8 9.3,10.3 9.1,10.4 9.1,10.7 9.8,11.2 10,11 			"/>
		</g>
	</g>
	<g id="Horn1_3_">
		<g>
			<path class="st29" d="M24.7,4c0,0.2,0.3,2.2-1.1,3.7c-0.7,0.7-1.5,1-2.1,1.2c-0.7,0.2-1.2,0.8-1.2,1.5c0,0.1,0,0.3,0,0.4
				c0,0.1,0,0.1,0.1,0.2c0.2,0.7,1,1.1,1.7,1c1.9-0.3,3.4-1.6,3.9-3.3C26.5,7,26,5.2,24.7,4z"/>
		</g>
		<g>
			<polygon class="st31" points="24.6,9.5 24.8,9.6 24.8,9.9 24,10.5 23.7,10.4 23.7,10.1 			"/>
			<polygon class="st31" points="23.2,10.1 23,10.1 23,9.9 23.6,9.5 23.8,9.6 23.8,9.8 			"/>
			<polygon class="st31" points="22.5,10.8 23.2,10.3 23.5,10.4 23.5,10.7 22.7,11.2 22.5,11 			"/>
		</g>
	</g>
</g>
</svg>
