<?xml version="1.0" encoding="utf-8"?>
<!-- Generator: Adobe Illustrator 23.0.3, SVG Export Plug-In . SVG Version: 6.00 Build 0)  -->
<svg version="1.1" id="Squaremojis" xmlns="http://www.w3.org/2000/svg" xmlns:xlink="http://www.w3.org/1999/xlink" x="0px"
	 y="0px" viewBox="0 0 32 32" style="enable-background:new 0 0 32 32;" xml:space="preserve">
<style type="text/css">
	.st0{fill:#C352FF;}
	.st1{fill:#870CAF;}
	.st2{fill:#E2BAD9;}
	.st3{fill:#FFFEF8;}
	.st4{fill:#14001C;}
	.st5{fill:#F257FF;}
	.st6{fill:#1A0F33;}
	.st7{fill:#FF3B73;}
	.st8{fill:#190326;}
	.st9{fill:#88D82A;}
	.st10{fill:#4AB541;}
	.st11{fill:#D3ED8C;}
	.st12{fill:#47AF1C;}
	.st13{fill:#10AAFF;}
	.st14{fill:#4278C6;}
	.st15{fill:#ADE4EA;}
	.st16{fill:#FF409B;}
	.st17{fill:#2E004F;}
	.st18{fill:#FFFF0B;}
	.st19{fill:#FFA440;}
	.st20{fill:#C11467;}
	.st21{fill:#89064B;}
	.st22{fill:#3F002F;}
	.st23{fill:#FFFDB3;}
	.st24{fill:#DAE8ED;}
	.st25{fill:#00F3FF;}
	.st26{fill:#FFF317;}
	.st27{fill:#12E9FF;}
	.st28{fill:#C11162;}
	.st29{fill:#AEF416;}
	.st30{fill:#FFA9C6;}
	.st31{fill:#66CC25;}
	.st32{fill:#FFE810;}
	.st33{fill:#CE2EE5;}
	.st34{fill:#790096;}
	.st35{fill:#FFC440;}
	.st36{fill:#284936;}
	.st37{fill:#38664B;}
	.st38{fill:#90C67B;}
	.st39{fill:#FFB36E;}
</style>
<g id="squaremoji_x5F_baby_x5F_laugh_x5F_purple">
	<path class="st0" d="M20.8,29h-9.5c-3.7,0-6.8-3.1-6.8-6.8v-9.5c0-3.7,3.1-6.8,6.8-6.8h9.5c3.7,0,6.8,3.1,6.8,6.8v9.5
		C27.6,25.9,24.5,29,20.8,29z"/>
	<path class="st1" d="M16.5,8.2c-0.7-0.4-1.6-0.5-2.3-0.1c-1.9,0.8-1.8,3-0.4,3.9l0,0c0.3-0.5,0.3-1,0.2-1.6
		c-0.1-0.6,0.3-1.3,1.4-1.2c0.2,0,0.3,0,0.4,0.1c0.5,0.3,0.8,0.9,0.8,1.5c0,0.3-0.1,0.6-0.3,0.9c-0.4,0.7-1.1,1.1-1.9,1.1
		c-0.5,0-1.1-0.1-1.5-0.4c-0.8-0.5-1.3-1.4-1.3-2.4c0-0.7,0.2-1.3,0.6-1.9c0.3-0.4,0.7-0.8,1.1-1.1c0.6-0.4,1.4-0.6,2.2-0.7
		c0.6,0,1.9-0.1,2.3-0.5c0.1,0,0.1,0,0.2,0.1C18,5.7,18,5.6,17.9,5.5l0,0.1C17,5.2,16.1,5,15.2,5.1c-1.5,0.1-2.7,0.8-3.6,1.9
		c-0.2,0.2-0.3,0.4-0.4,0.6c-0.4,0.7-0.7,1.5-0.7,2.3c0,1.5,0.7,2.7,1.9,3.5c0.7,0.5,1.6,0.7,2.4,0.6c1.1-0.1,2.1-0.7,2.7-1.7
		c0.3-0.5,0.5-1.1,0.5-1.7C17.9,9.6,17.4,8.7,16.5,8.2z M17.8,5.8l0,0.1C17.7,5.8,17.7,5.7,17.8,5.8z"/>
	<g>
		<circle class="st1" cx="11.7" cy="14.7" r="2.9"/>
		<g id="Eye_20_">
			<circle class="st2" cx="11.8" cy="13.9" r="2.9"/>
			<circle class="st3" cx="11.8" cy="13.4" r="2.2"/>
		</g>
	</g>
	<g>
		<circle class="st1" cx="20.4" cy="14.7" r="2.9"/>
		<g id="Eye_19_">
			<circle class="st2" cx="20.3" cy="13.9" r="2.9"/>
			<circle class="st3" cx="20.3" cy="13.4" r="2.2"/>
		</g>
	</g>
	<path class="st1" d="M21.2,18.3h-7.5c-0.4,0-0.7,0.3-0.7,0.7v4.5c0,2.5,2,4.5,4.5,4.5c2.5,0,4.5-2,4.5-4.5V19
		C21.9,18.6,21.6,18.3,21.2,18.3z"/>
	<g id="Mouth_12_">
		<path class="st25" d="M20.3,16.3h-7.5c-0.4,0-0.7,0.3-0.7,0.7v4.5c0,2.5,2,4.5,4.5,4.5l0,0c2.5,0,4.5-2,4.5-4.5V17
			C21.1,16.6,20.7,16.3,20.3,16.3z"/>
		<path class="st4" d="M18.3,18.6h-3.3c-0.4,0-0.7,0.3-0.7,0.7v2.1c0,1.3,1.1,2.4,2.4,2.4c1.3,0,2.4-1.1,2.4-2.4v-2.1
			C19,18.9,18.7,18.6,18.3,18.6z"/>
		<path class="st3" d="M18.4,18.6h-1.8v1.3c0,0.5,0.3,0.9,0.8,0.9c0.5,0.1,1-0.4,1-0.9V18.6z"/>
	</g>
	<g>
		<path class="st17" d="M21.3,14.6c-0.2,0-0.4-0.1-0.5-0.3c-0.1-0.2-0.3-0.3-0.5-0.3s-0.4,0.1-0.5,0.3c-0.2,0.3-0.6,0.4-0.9,0.1
			c-0.3-0.2-0.4-0.6-0.1-0.9c0.4-0.5,1-0.8,1.6-0.8c0.6,0,1.2,0.3,1.6,0.8c0.2,0.3,0.2,0.7-0.1,0.9C21.6,14.6,21.5,14.6,21.3,14.6z"
			/>
	</g>
	<g>
		<path class="st17" d="M12.8,14.6c-0.2,0-0.4-0.1-0.5-0.3c-0.1-0.2-0.3-0.3-0.5-0.3s-0.4,0.1-0.5,0.3c-0.2,0.3-0.6,0.4-0.9,0.1
			c-0.3-0.2-0.4-0.6-0.1-0.9c0.4-0.5,1-0.8,1.6-0.8c0.6,0,1.2,0.3,1.6,0.8c0.2,0.3,0.2,0.7-0.1,0.9C13,14.6,12.9,14.6,12.8,14.6z"/>
	</g>
	<g id="Ball_2_">
		<circle class="st0" cx="22.1" cy="16.2" r="3"/>
		<circle class="st5" cx="22.9" cy="15.7" r="0.6"/>
	</g>
	<g id="Skin_Texture_12_">
		<polygon class="st5" points="8.5,22.2 8,22.9 7.3,22.8 6.4,21.1 6.8,20.4 7.6,20.5 		"/>
		<polygon class="st5" points="9.4,23.1 8.6,21.6 9,21.1 9.7,21.1 10.4,22.6 10,23.2 		"/>
		<polygon class="st5" points="7.4,19.5 7.8,19.1 8.3,19.1 8.9,20.3 8.6,20.8 8,20.7 		"/>
	</g>
	<path class="st26" d="M16.5,7.1c-0.7-0.4-1.6-0.5-2.4-0.1c-1.5,0.7-1.7,2.2-1.1,3.2c0.3,0.4,0.9,0.5,1.2,0.1l0,0
		c0.2-0.2,0.3-0.4,0.3-0.7c0-0.6,0-1.6,0.8-1.6c0.2,0,0.3,0,0.4,0.1c0.5,0.3,0.8,0.9,0.8,1.5c0,0.3-0.1,0.6-0.3,0.9
		c-0.4,0.7-1.1,1.1-1.9,1.1c-0.5,0-1.1-0.1-1.5-0.4c-0.8-0.5-1.3-1.4-1.3-2.4c0-0.7,0.2-1.3,0.6-1.9c0.3-0.4,0.7-0.8,1.1-1.1
		c0.6-0.4,1.4-0.6,2.2-0.7c0.8,0,1.5,0.2,2.2,0.6c0,0,0,0,0,0h1.9c-0.3-0.4-0.7-0.7-1.2-1c-1-0.6-2.1-1-3.3-0.9
		c-1.5,0.1-2.7,0.8-3.6,1.9c-0.2,0.2-0.3,0.4-0.4,0.6c-0.4,0.7-0.7,1.5-0.7,2.3c0,1.5,0.7,2.7,1.9,3.5c0.7,0.5,1.6,0.7,2.4,0.6
		c1.1-0.1,2.1-0.7,2.7-1.7c0.3-0.5,0.5-1.1,0.5-1.7C17.9,8.5,17.4,7.7,16.5,7.1z"/>
</g>
</svg>
