<?xml version="1.0" encoding="utf-8"?>
<!-- Generator: Adobe Illustrator 23.0.3, SVG Export Plug-In . SVG Version: 6.00 Build 0)  -->
<svg version="1.1" id="Squaremojis" xmlns="http://www.w3.org/2000/svg" xmlns:xlink="http://www.w3.org/1999/xlink" x="0px"
	 y="0px" viewBox="0 0 32 32" style="enable-background:new 0 0 32 32;" xml:space="preserve">
<style type="text/css">
	.st0{fill:#C352FF;}
	.st1{fill:#870CAF;}
	.st2{fill:#E2BAD9;}
	.st3{fill:#FFFEF8;}
	.st4{fill:#14001C;}
	.st5{fill:#F257FF;}
	.st6{fill:#1A0F33;}
	.st7{fill:#FF3B73;}
	.st8{fill:#190326;}
	.st9{fill:#88D82A;}
	.st10{fill:#4AB541;}
	.st11{fill:#D3ED8C;}
	.st12{fill:#47AF1C;}
	.st13{fill:#10AAFF;}
	.st14{fill:#4278C6;}
	.st15{fill:#ADE4EA;}
	.st16{fill:#FF409B;}
	.st17{fill:#2E004F;}
	.st18{fill:#FFFF0B;}
	.st19{fill:#FFA440;}
	.st20{fill:#C11467;}
	.st21{fill:#89064B;}
	.st22{fill:#3F002F;}
	.st23{fill:#FFFDB3;}
	.st24{fill:#DAE8ED;}
	.st25{fill:#00F3FF;}
	.st26{fill:#FFF317;}
	.st27{fill:#12E9FF;}
	.st28{fill:#C11162;}
	.st29{fill:#AEF416;}
	.st30{fill:#FFA9C6;}
	.st31{fill:#66CC25;}
	.st32{fill:#FFE810;}
	.st33{fill:#CE2EE5;}
	.st34{fill:#790096;}
	.st35{fill:#FFC440;}
	.st36{fill:#284936;}
	.st37{fill:#38664B;}
	.st38{fill:#90C67B;}
	.st39{fill:#FFB36E;}
</style>
<g id="squaremoji_x5F_surprised_x5F_green">
	<path class="st9" d="M20.8,29.2h-9.5c-3.7,0-6.8-3.1-6.8-6.8v-9.5c0-3.7,3.1-6.8,6.8-6.8h9.5c3.7,0,6.8,3.1,6.8,6.8v9.5
		C27.6,26.2,24.6,29.2,20.8,29.2z"/>
	<polygon class="st12" points="26.6,15.3 4.9,15.3 8.9,7.3 23.6,7.3 	"/>
	<g id="Skin_Texture_2_">
		<polygon class="st12" points="10.2,26.2 10.2,27 9.5,27.5 7.8,26.5 7.8,25.7 8.5,25.2 		"/>
		<polygon class="st12" points="11.5,26.5 10,25.6 10,25 10.6,24.6 12.1,25.4 12.1,26.1 		"/>
		<polygon class="st12" points="7.8,24.5 7.8,24 8.3,23.7 9.5,24.4 9.5,24.9 9,25.2 		"/>
	</g>
	<g id="Mouth_9_">
		<g>
			<path class="st16" d="M4.5,29.2c1,0,1.9-0.6,2.2-1.6c1.1-3.3,5-5.7,9.3-5.7s8.1,2.3,9.3,5.7c0.4,1.2,1.8,1.9,3,1.5
				c1.2-0.4,1.9-1.8,1.5-3c-0.9-2.6-2.7-4.8-5.2-6.4c-2.5-1.6-5.4-2.4-8.6-2.4S9.9,18,7.4,19.6c-2.5,1.6-4.3,3.9-5.2,6.4
				c-0.4,1.2,0.2,2.6,1.5,3C4,29.2,4.2,29.2,4.5,29.2z"/>
		</g>
		<g>
			<path class="st3" d="M13.6,20.1L13.6,20.1c0.5-0.1,0.9-0.6,0.8-1.2l-0.1-0.6c-0.1-0.5-0.6-0.9-1.2-0.8l0,0
				c-0.5,0.1-0.9,0.6-0.8,1.2l0.1,0.6C12.5,19.8,13,20.2,13.6,20.1z"/>
		</g>
		<g>
			<path class="st3" d="M10.3,21.1L10.3,21.1c0.5-0.3,0.6-0.9,0.4-1.4l0,0c-0.3-0.5-0.9-0.6-1.4-0.4l0,0c-0.5,0.3-0.6,0.9-0.4,1.4h0
				C9.2,21.2,9.8,21.4,10.3,21.1z"/>
		</g>
		<g>
			<path class="st3" d="M23.3,22L23.3,22c0.5,0.3,1.1,0.2,1.4-0.2l0.7-0.9c0.3-0.5,0.2-1.1-0.2-1.4l0,0c-0.5-0.3-1.1-0.2-1.4,0.2
				L23,20.6C22.7,21,22.8,21.6,23.3,22z"/>
		</g>
		<g>
			<path class="st8" d="M27.5,27.3c0,0,0.1,0,0.1,0c0.2-0.1,0.4-0.3,0.3-0.6c-1.5-4.5-6.4-7.6-11.9-7.6S5.6,22.2,4.1,26.7
				c-0.1,0.2,0,0.5,0.3,0.6c0.2,0.1,0.5,0,0.6-0.3c1.4-4.1,6-7,11.1-7s9.7,2.9,11.1,7C27.2,27.2,27.3,27.3,27.5,27.3z"/>
		</g>
	</g>
	<g>
		<g>
			<circle class="st12" cx="8.9" cy="15.9" r="2.2"/>
			<g id="Eye_17_">
				<circle class="st11" cx="8.9" cy="15.3" r="2.2"/>
				<circle class="st3" cx="8.9" cy="15" r="1.7"/>
			</g>
		</g>
		<path class="st4" d="M9.3,15.2H8.9L9.2,15c0,0,0-0.1,0-0.2c0,0-0.1,0-0.2,0L8.8,15v-0.3c0-0.1-0.1-0.1-0.1-0.1
			c-0.1,0-0.1,0.1-0.1,0.1V15l-0.2-0.2c0,0-0.1,0-0.2,0c0,0,0,0.1,0,0.2l0.2,0.2H8c-0.1,0-0.1,0.1-0.1,0.1c0,0.1,0.1,0.1,0.1,0.1
			h0.3l-0.2,0.2c0,0,0,0.1,0,0.2c0,0,0.1,0,0.1,0s0.1,0,0.1,0l0.2-0.2V16c0,0.1,0.1,0.1,0.1,0.1c0.1,0,0.1-0.1,0.1-0.1v-0.3L9,15.9
			c0,0,0.1,0,0.1,0c0,0,0.1,0,0.1,0c0,0,0-0.1,0-0.2l-0.2-0.2h0.3c0.1,0,0.1-0.1,0.1-0.1C9.4,15.3,9.3,15.2,9.3,15.2z"/>
	</g>
	<g>
		<g>
			<circle class="st12" cx="22.9" cy="15.9" r="2.2"/>
			<g id="Eye_16_">
				<circle class="st11" cx="22.9" cy="15.3" r="2.2"/>
				<circle class="st3" cx="22.9" cy="15" r="1.7"/>
			</g>
		</g>
		<path class="st4" d="M22.5,15.2h0.3L22.6,15c0,0,0-0.1,0-0.2c0,0,0.1,0,0.2,0l0.2,0.2v-0.3c0-0.1,0.1-0.1,0.1-0.1s0.1,0.1,0.1,0.1
			V15l0.2-0.2c0,0,0.1,0,0.2,0c0,0,0,0.1,0,0.2l-0.2,0.2h0.3c0.1,0,0.1,0.1,0.1,0.1c0,0.1-0.1,0.1-0.1,0.1h-0.3l0.2,0.2
			c0,0,0,0.1,0,0.2c0,0-0.1,0-0.1,0c0,0-0.1,0-0.1,0l-0.2-0.2V16c0,0.1-0.1,0.1-0.1,0.1s-0.1-0.1-0.1-0.1v-0.3l-0.2,0.2
			c0,0-0.1,0-0.1,0c0,0-0.1,0-0.1,0c0,0,0-0.1,0-0.2l0.2-0.2h-0.3c-0.1,0-0.1-0.1-0.1-0.1C22.4,15.3,22.5,15.2,22.5,15.2z"/>
	</g>
	<circle class="st12" cx="22.2" cy="9.2" r="0.6"/>
	<circle class="st12" cx="11.3" cy="8.3" r="0.3"/>
	<path id="Hair_4_" class="st17" d="M10.3,8.8V13h16.5C26,7.7,21.5,3.7,16,3.7S6,7.7,5.3,13h4L10.3,8.8z"/>
</g>
</svg>
